# xmcd CD database file
#
# Track frame offsets:
#	150
#	18404
#	30094
#	51271
#	66183
#	83650
#	112522
#	131661
#	150662
#	173610
#	194453
#	216873
#	233971
#	255922
#
# Disc length: 3676 seconds
#
# Revision: 0
# Processed by: cddbd v1.5.2PL0 Copyright (c) Steve Scherf et al.
# Submitted via: jetAudio 7
#
DISCID=a70e5a0e
DTITLE=Juanita Du Plessis - Young Hearts
DYEAR=1997
DGENRE=Dance
TTITLE0=Young Hearts
TTITLE1=Do You Wanna Make Something Of It
TTITLE2=Give Me One More Change
TTITLE3=Let Me Lay You Down
TTITLE4=Just Say Goodnight
TTITLE5=Medley: Every Breath You Take, Ooh Aah Just A Little Bit, What'
TTITLE5=s Up, Mi
TTITLE6=Young Hearts (Dance Mix)
TTITLE7=Let Me Be The One
TTITLE8=Grandpa
TTITLE9=When I'm With You
TTITLE10=You Don't Know What It's Like
TTITLE11=Have We Forgotten What Love Is
TTITLE12=He's Gone For Good
TTITLE13=If I Could Only Find The Words
EXTD=
EXTT0=
EXTT1=
EXTT2=
EXTT3=
EXTT4=
EXTT5=
EXTT6=
EXTT7=
EXTT8=
EXTT9=
EXTT10=
EXTT11=
EXTT12=
EXTT13=
PLAYORDER=
